<svg width="90" height="90" viewBox="0 0 85 85" fill="none" xmlns="http://www.w3.org/2000/svg">
    <g clip-path="url(#clip0_14620_29)">
        <rect x="2" y="2" width="86" height="86" rx="43" fill="#f7f8fb" />
        <path
            d="M80.8901 46.0901C80.4254 44.3633 78.6241 43.3338 76.868 43.7906C76.5789 43.8749 74.7798 44.3465 72.8329 45.9754C71.8669 46.7903 70.8754 47.9179 70.1428 49.3961C69.4072 50.8723 68.9521 52.6832 68.9564 54.7332C68.9584 57.2232 69.5968 60.0492 71.0392 63.3035C72.0126 65.4978 72.456 67.8277 72.456 70.1355C72.4656 74.0397 71.1486 77.8679 69.1834 80.538C68.2079 81.8751 67.0845 82.9155 65.9581 83.5882C65.4954 83.864 65.0372 84.0652 64.5809 84.2252L64.7341 83.3334C64.7256 80.739 64.1066 78.0257 62.7166 75.6358C58.3229 68.073 52.4556 55.1088 52.4556 55.1088L52.219 54.3656C56.7852 53.1779 61.2956 50.7995 63.553 45.9889C69.5852 33.1397 57.1878 24.245 57.1878 24.245C57.1878 24.245 53.1657 15.6799 51.1567 16.0093C49.1458 16.3389 44.7893 21.9402 44.7893 21.9402H41.1034H37.4176C37.4176 21.9402 33.0623 16.3389 31.0524 16.0093C29.0413 15.6798 25.0213 24.245 25.0213 24.245C25.0213 24.245 12.6228 33.1397 18.655 45.9889C20.7966 50.5521 24.9676 52.9315 29.2896 54.1771L28.8323 55.6491C28.8323 55.6491 23.8883 68.073 19.4923 75.6358C15.0974 83.1976 18.3947 94 24.4374 94C29.0037 94 36.6999 94 40.1942 94C41.3241 94 42.0168 94 42.0168 94C45.51 94 53.2074 94 57.7735 94C59.7342 94 61.3961 92.8503 62.6084 91.0561C65.0606 91.0541 67.3823 90.3139 69.3807 89.1125C72.3951 87.2973 74.7585 84.4935 76.4205 81.2065C78.0761 77.9131 79.0323 74.1018 79.0357 70.1354C79.0357 67.0148 78.4337 63.795 77.0707 60.7186C75.8991 58.0769 75.5339 56.1154 75.5361 54.733C75.5404 53.5865 75.7685 52.822 76.0565 52.2324C76.2761 51.7923 76.5406 51.4448 76.8286 51.1522C77.258 50.7153 77.7527 50.4089 78.1223 50.2299C78.3054 50.1392 78.4531 50.0824 78.5366 50.0529L78.6062 50.0297L78.6051 50.0254C80.3268 49.5445 81.3495 47.7979 80.8901 46.0901Z"
            fill="#D9DEE6" />
    </g>
    <defs>
        <clipPath id="clip0_14620_29">
            <rect x="2" y="2" width="86" height="86" rx="43" fill="white" />
        </clipPath>
    </defs>
</svg>