<svg width="340" height="169" viewBox="0 0 340 169" fill="none" xmlns="http://www.w3.org/2000/svg">
    <path
        d="M76.1132 118.425H71.1132V123.425H76.1132V118.425ZM104.475 118.425H109.475V113.425H104.475V118.425ZM104.475 132.112V137.112H109.475V132.112H104.475ZM58.8498 132.112H53.8498V137.112H58.8498V132.112ZM58.8498 46.0421V41.0421H53.8498V46.0421H58.8498ZM76.1132 46.0421H81.1132V41.0421H76.1132V46.0421ZM76.1132 123.425L104.475 123.425V113.425L76.1132 113.425V123.425ZM99.4745 118.425V132.112H109.475V118.425H99.4745ZM104.475 127.112L58.8498 127.112V137.112H104.475V127.112ZM63.8498 132.112L63.8498 46.0421H53.8498L53.8498 132.112H63.8498ZM58.8498 51.0421H76.1132V41.0421H58.8498V51.0421ZM71.1132 46.0421V118.425H81.1132V46.0421H71.1132ZM132.711 46.0421H137.711V41.0421H132.711V46.0421ZM132.711 132.112V137.112H137.711V132.112H132.711ZM115.447 132.112H110.447V137.112H115.447V132.112ZM115.447 46.0421V41.0421H110.447V46.0421H115.447ZM127.711 46.0421V132.112H137.711V46.0421H127.711ZM132.711 127.112H115.447V137.112H132.711V127.112ZM120.447 132.112V46.0421H110.447V132.112H120.447ZM115.447 51.0421H132.711V41.0421H115.447V51.0421ZM198.351 132.112L194.478 135.275L195.979 137.112H198.351V132.112ZM167.03 93.7631L170.903 90.6003L162.03 79.7366V93.7631H167.03ZM167.03 132.112V137.112H172.03V132.112H167.03ZM149.767 132.112H144.767V137.112H149.767V132.112ZM149.767 46.0421V41.0421H144.767V46.0421H149.767ZM167.03 46.0421H172.03V41.0421H167.03V46.0421ZM167.03 84.6381H162.03V98.7345L170.913 87.7888L167.03 84.6381ZM198.351 46.0421V41.0421H195.969L194.469 42.8915L198.351 46.0421ZM219.19 46.0421L223.033 49.2409L229.858 41.0421H219.19V46.0421ZM183.677 88.7074L179.834 85.5086L177.158 88.7237L179.85 91.9254L183.677 88.7074ZM220.177 132.112V137.112H230.914L224.004 128.894L220.177 132.112ZM202.224 128.95L170.903 90.6003L163.158 96.9259L194.478 135.275L202.224 128.95ZM162.03 93.7631V132.112H172.03V93.7631H162.03ZM167.03 127.112H149.767V137.112H167.03V127.112ZM154.767 132.112V46.0421H144.767V132.112H154.767ZM149.767 51.0421H167.03V41.0421H149.767V51.0421ZM162.03 46.0421V84.6381H172.03V46.0421H162.03ZM170.913 87.7888L202.233 49.1928L194.469 42.8915L163.148 81.4875L170.913 87.7888ZM198.351 51.0421L219.19 51.0421V41.0421L198.351 41.0421V51.0421ZM215.347 42.8434L179.834 85.5086L187.52 91.9061L223.033 49.2409L215.347 42.8434ZM179.85 91.9254L216.35 135.33L224.004 128.894L187.504 85.4894L179.85 91.9254ZM220.177 127.112L198.351 127.112V137.112L220.177 137.112V127.112ZM248.795 59.9762V54.9762H243.795V59.9762H248.795ZM248.795 81.5554H243.795V86.5554H248.795V81.5554ZM277.773 81.5554H282.773V76.5554H277.773V81.5554ZM277.773 95.2428V100.243H282.773V95.2428H277.773ZM248.795 95.2428V90.2428H243.795V95.2428H248.795ZM248.795 118.055H243.795V123.055H248.795V118.055ZM281.473 118.055H286.473V113.055H281.473V118.055ZM281.473 132.112V137.112H286.473V132.112H281.473ZM231.532 132.112H226.532V137.112H231.532V132.112ZM231.532 45.9188V40.9188H226.532V45.9188H231.532ZM281.473 45.9188H286.473V40.9188H281.473V45.9188ZM281.473 59.9762V64.9762H286.473V59.9762H281.473ZM243.795 59.9762V81.5554H253.795V59.9762H243.795ZM248.795 86.5554H277.773V76.5554H248.795V86.5554ZM272.773 81.5554V95.2428H282.773V81.5554H272.773ZM277.773 90.2428H248.795V100.243H277.773V90.2428ZM243.795 95.2428V118.055H253.795V95.2428H243.795ZM248.795 123.055H281.473V113.055H248.795V123.055ZM276.473 118.055V132.112H286.473V118.055H276.473ZM281.473 127.112H231.532V137.112H281.473V127.112ZM236.532 132.112V45.9188H226.532V132.112H236.532ZM231.532 50.9188H281.473V40.9188H231.532V50.9188ZM276.473 45.9188V59.9762L286.473 59.9762V45.9188H276.473ZM281.473 54.9762L248.795 54.9762V64.9762H281.473V54.9762Z"
        fill="url(#paint0_linear_13_4)" />
    <rect x="2.5" y="2.5" width="335" height="163.994" rx="12.5888"
        stroke="url(#paint1_linear_13_4)" stroke-width="5" />
    <defs>
        <linearGradient id="paint0_linear_13_4" x1="294.734" y1="84.4971" x2="44.2603" y2="84.4971"
            gradientUnits="userSpaceOnUse">
            <stop stop-color="#29D78A" />
            <stop offset="1" stop-color="#6EF2F2" />
        </linearGradient>
        <linearGradient id="paint1_linear_13_4" x1="340" y1="84.497" x2="2.76544e-06" y2="84.497"
            gradientUnits="userSpaceOnUse">
            <stop stop-color="#29D78A" />
            <stop offset="1" stop-color="#6EF2F2" />
        </linearGradient>
    </defs>
</svg>